<?xml version="1.0" standalone="no"?><svg xmlns="http://www.w3.org/2000/svg" viewBox="0 0 1440 320" preserveAspectRatio="none"><path fill="#679713" fill-opacity="1" d="M0,320L6.2,298.7C12.3,277,25,235,37,229.3C49.2,224,62,256,74,229.3C86.2,203,98,117,111,80C123.1,43,135,53,148,101.3C160,149,172,235,185,250.7C196.9,267,209,213,222,186.7C233.8,160,246,160,258,176C270.8,192,283,224,295,208C307.7,192,320,128,332,101.3C344.6,75,357,85,369,85.3C381.5,85,394,75,406,106.7C418.5,139,431,213,443,218.7C455.4,224,468,160,480,138.7C492.3,117,505,139,517,165.3C529.2,192,542,224,554,234.7C566.2,245,578,235,591,213.3C603.1,192,615,160,628,128C640,96,652,64,665,90.7C676.9,117,689,203,702,202.7C713.8,203,726,117,738,90.7C750.8,64,763,96,775,101.3C787.7,107,800,85,812,90.7C824.6,96,837,128,849,170.7C861.5,213,874,267,886,261.3C898.5,256,911,192,923,181.3C935.4,171,948,213,960,218.7C972.3,224,985,192,997,160C1009.2,128,1022,96,1034,122.7C1046.2,149,1058,235,1071,234.7C1083.1,235,1095,149,1108,128C1120,107,1132,149,1145,165.3C1156.9,181,1169,171,1182,170.7C1193.8,171,1206,181,1218,170.7C1230.8,160,1243,128,1255,117.3C1267.7,107,1280,117,1292,144C1304.6,171,1317,213,1329,202.7C1341.5,192,1354,128,1366,133.3C1378.5,139,1391,213,1403,208C1415.4,203,1428,117,1434,74.7L1440,32L1440,320L1433.8,320C1427.7,320,1415,320,1403,320C1390.8,320,1378,320,1366,320C1353.8,320,1342,320,1329,320C1316.9,320,1305,320,1292,320C1280,320,1268,320,1255,320C1243.1,320,1231,320,1218,320C1206.2,320,1194,320,1182,320C1169.2,320,1157,320,1145,320C1132.3,320,1120,320,1108,320C1095.4,320,1083,320,1071,320C1058.5,320,1046,320,1034,320C1021.5,320,1009,320,997,320C984.6,320,972,320,960,320C947.7,320,935,320,923,320C910.8,320,898,320,886,320C873.8,320,862,320,849,320C836.9,320,825,320,812,320C800,320,788,320,775,320C763.1,320,751,320,738,320C726.2,320,714,320,702,320C689.2,320,677,320,665,320C652.3,320,640,320,628,320C615.4,320,603,320,591,320C578.5,320,566,320,554,320C541.5,320,529,320,517,320C504.6,320,492,320,480,320C467.7,320,455,320,443,320C430.8,320,418,320,406,320C393.8,320,382,320,369,320C356.9,320,345,320,332,320C320,320,308,320,295,320C283.1,320,271,320,258,320C246.2,320,234,320,222,320C209.2,320,197,320,185,320C172.3,320,160,320,148,320C135.4,320,123,320,111,320C98.5,320,86,320,74,320C61.5,320,49,320,37,320C24.6,320,12,320,6,320L0,320Z" data-darkreader-inline-fill="" style="--darkreader-inline-fill:#0d91e9;"></path></svg>