<?xml version="1.0" standalone="no"?><svg xmlns="http://www.w3.org/2000/svg" viewBox="0 0 1440 320" preserveAspectRatio="none"><path fill="#679713" fill-opacity="1" d="M0,224L7.5,213.3C15,203,30,181,45,186.7C60,192,75,224,90,240C105,256,120,256,135,213.3C150,171,165,85,180,48C195,11,210,21,225,69.3C240,117,255,203,270,234.7C285,267,300,245,315,208C330,171,345,117,360,117.3C375,117,390,171,405,160C420,149,435,75,450,42.7C465,11,480,21,495,58.7C510,96,525,160,540,192C555,224,570,224,585,186.7C600,149,615,75,630,85.3C645,96,660,192,675,224C690,256,705,224,720,213.3C735,203,750,213,765,229.3C780,245,795,267,810,234.7C825,203,840,117,855,74.7C870,32,885,32,900,64C915,96,930,160,945,197.3C960,235,975,245,990,234.7C1005,224,1020,192,1035,160C1050,128,1065,96,1080,90.7C1095,85,1110,107,1125,112C1140,117,1155,107,1170,117.3C1185,128,1200,160,1215,186.7C1230,213,1245,235,1260,240C1275,245,1290,235,1305,234.7C1320,235,1335,245,1350,213.3C1365,181,1380,107,1395,74.7C1410,43,1425,53,1433,58.7L1440,64L1440,320L1432.5,320C1425,320,1410,320,1395,320C1380,320,1365,320,1350,320C1335,320,1320,320,1305,320C1290,320,1275,320,1260,320C1245,320,1230,320,1215,320C1200,320,1185,320,1170,320C1155,320,1140,320,1125,320C1110,320,1095,320,1080,320C1065,320,1050,320,1035,320C1020,320,1005,320,990,320C975,320,960,320,945,320C930,320,915,320,900,320C885,320,870,320,855,320C840,320,825,320,810,320C795,320,780,320,765,320C750,320,735,320,720,320C705,320,690,320,675,320C660,320,645,320,630,320C615,320,600,320,585,320C570,320,555,320,540,320C525,320,510,320,495,320C480,320,465,320,450,320C435,320,420,320,405,320C390,320,375,320,360,320C345,320,330,320,315,320C300,320,285,320,270,320C255,320,240,320,225,320C210,320,195,320,180,320C165,320,150,320,135,320C120,320,105,320,90,320C75,320,60,320,45,320C30,320,15,320,8,320L0,320Z"></path></svg>